<?xml version="1.0" standalone="no"?>
<!DOCTYPE svg PUBLIC "-//W3C//DTD SVG 1.1//EN" "http://www.w3.org/Graphics/SVG/1.1/DTD/svg11.dtd" >
<svg xmlns="http://www.w3.org/2000/svg">
<metadata></metadata>
<defs>
<font id="suisse_bp_monothin" horiz-adv-x="1228" >
<font-face units-per-em="2048" ascent="1536" descent="-512" />
<missing-glyph horiz-adv-x="500" />
<glyph horiz-adv-x="0" />
<glyph horiz-adv-x="682" />
<glyph unicode=" " />
<glyph unicode="!" d="M637 332h-47l-17 643v385h80v-385zM580 0v199h73v-199h-73z" />
<glyph unicode="&#x22;" d="M719 1368h86l-25 -457h-39zM422 1368h86l-23 -457h-41z" />
<glyph unicode="#" d="M739 498l58 403h-305l-58 -403h305zM424 426l-59 -426h-74l59 426h-291l11 72h290l58 403h-293l12 70h289l55 389h74l-55 -389h307l55 389h72l-53 -389h288l-10 -70h-289l-55 -403h287l-10 -72h-287l-60 -426h-75l59 426h-305z" />
<glyph unicode="$" d="M561 764l19 -4v551q-54 -2 -104.5 -17.5t-96 -44.5t-73 -79.5t-27.5 -114.5q0 -225 282 -291zM653 664l-8 2v-617q43 2 87 11t93 31t86 54t61.5 84.5t24.5 118.5q0 131 -92.5 205.5t-251.5 110.5zM645 -195h-65v172q-173 15 -288 126t-147 300l82 9q37 -171 129.5 -259.5 t223.5 -101.5v629l-41 10q-344 80 -344 359q0 83 35 148t92.5 103.5t122.5 59.5t135 24v189h65v-191q156 -11 264.5 -104.5t143.5 -255.5l-82 -10q-33 133 -118.5 209t-207.5 88v-566l21 -4q63 -14 114.5 -30.5t110 -47.5t98 -70t66 -99t26.5 -134q0 -75 -24.5 -138 t-66.5 -107t-98 -75.5t-118.5 -46.5t-128.5 -16v-170z" />
<glyph unicode="%" d="M313 696q-128 0 -192 91t-64 249t64 248t192 90q127 0 191.5 -90.5t64.5 -247.5q0 -158 -64.5 -249t-191.5 -91zM102 0l953 1360h75l-952 -1360h-76zM313 754q89 0 140 72t51 210t-51 209.5t-140 71.5q-90 0 -141 -71.5t-51 -209.5t51 -210t141 -72zM918 -25 q-128 0 -192 91t-64 249t64 248t192 90q127 0 191.5 -90.5t64.5 -247.5q0 -158 -64.5 -249t-191.5 -91zM918 33q88 0 139 72t51 210t-50.5 209.5t-139.5 71.5q-90 0 -141.5 -71.5t-51.5 -209.5t51.5 -210t141.5 -72z" />
<glyph unicode="&#x26;" d="M362 1122q0 -81 36.5 -164.5t88.5 -144.5q117 50 180.5 120t63.5 177q0 95 -54 151t-134 56q-77 0 -129 -50.5t-52 -144.5zM485 43q209 0 355 236l-367 438l-16 20q-136 -49 -212.5 -141t-76.5 -223q0 -148 90 -239t227 -91zM1075 0l-188 225q-166 -250 -404 -250 q-176 0 -285.5 110.5t-109.5 285.5q0 297 328 417q-131 179 -131 332q0 119 76.5 191.5t187.5 72.5q46 0 90.5 -16.5t82.5 -48.5t61.5 -86t23.5 -121q0 -228 -277 -350l349 -412q82 168 106 363h76q-36 -241 -133 -420l248 -293h-101z" />
<glyph unicode="'" d="M571 1368h86l-22 -457h-41z" />
<glyph unicode="(" d="M465 514q0 247 67.5 468t165.5 378h66q-225 -397 -225 -846q0 -451 225 -848h-66q-98 157 -165.5 379t-67.5 469z" />
<glyph unicode=")" d="M764 514q0 -246 -68.5 -468t-167.5 -380h-63q223 393 223 848q0 453 -223 846h63q99 -159 167.5 -379.5t68.5 -466.5z" />
<glyph unicode="*" d="M645 1360v-242l246 80l18 -61l-243 -80l149 -205l-51 -39l-152 205l-147 -205l-53 37l147 205l-242 84l19 63l244 -84v242h65z" />
<glyph unicode="+" d="M651 0h-76v479h-477v72h477v461h76v-461h477v-72h-477v-479z" />
<glyph unicode="," d="M610 199h74v-199q0 -48 -1.5 -79t-5.5 -66.5t-13.5 -57.5t-24.5 -42.5t-38.5 -31.5t-55.5 -14v74q42 12 53.5 52t11.5 163v201z" />
<glyph unicode="-" d="M881 477h-533v80h533v-80z" />
<glyph unicode="." d="M651 0h-73v199h73v-199z" />
<glyph unicode="/" d="M375 0h-76l553 1360h76z" />
<glyph unicode="0" d="M614 -25q-108 0 -190 33.5t-137 93t-89.5 148.5t-49.5 194t-15 236q0 165 24.5 289t79 220t149 145.5t228.5 49.5q107 0 189 -33t136.5 -92.5t89.5 -148.5t50 -194t15 -236t-15 -236t-50 -194t-89.5 -149t-136.5 -93t-189 -33zM213 680q0 -80 6 -148l782 365 q-29 211 -124.5 315.5t-262.5 104.5q-206 0 -303.5 -157t-97.5 -480zM614 43q205 0 302.5 157t97.5 480q0 78 -6 145l-783 -360q29 -213 125 -317.5t264 -104.5z" />
<glyph unicode="1" d="M602 1098h-377v65h97q66 0 107 2t75 11t51.5 20.5t31.5 36.5t20 52t14 75h55v-1294h389v-66h-852v66h389v1032z" />
<glyph unicode="2" d="M627 1384q183 0 292 -95t109 -265q0 -112 -47.5 -221t-149.5 -226.5t-240 -236t-341 -268.5h825v-72h-932v74q214 159 356 279.5t247.5 237.5t153.5 220t48 207q0 145 -91.5 222t-229.5 77q-72 0 -133 -19t-114.5 -60.5t-86.5 -118t-37 -181.5l-78 2q10 219 131.5 331.5 t317.5 112.5z" />
<glyph unicode="3" d="M606 43q171 0 275 84.5t104 234.5q0 164 -114 241t-320 77h-21v65h15q204 0 305.5 78.5t101.5 216.5q0 125 -91 201t-243 76q-147 0 -246.5 -79.5t-125.5 -229.5l-78 6q31 174 147.5 272t307.5 98q185 0 297 -90t112 -247q0 -131 -78 -217.5t-198 -112.5 q140 -22 224.5 -108.5t84.5 -241.5q0 -125 -62 -215t-164.5 -133.5t-232.5 -43.5q-195 0 -315 104.5t-150 282.5l78 7q33 -163 133.5 -244.5t253.5 -81.5z" />
<glyph unicode="4" d="M1147 451v-70h-260v-381h-76v381h-725v65l727 914h74v-909h260zM811 1255l-641 -804h641v804z" />
<glyph unicode="5" d="M614 43q170 0 274.5 105t104.5 290q0 186 -102.5 293t-272.5 107q-127 0 -214.5 -53.5t-133.5 -149.5l-69 10l96 715h719v-72h-656l-75 -534q122 151 350 151q200 0 319 -125t119 -342t-129 -340t-330 -123q-195 0 -312.5 103t-147.5 282l77 9q66 -326 383 -326z" />
<glyph unicode="6" d="M647 1317q-202 0 -316 -173.5t-110 -535.5q40 134 147 214.5t271 80.5q205 0 329 -129t124 -340q0 -96 -32 -179.5t-90 -146t-146 -98t-195 -35.5q-109 0 -195.5 35t-152 109.5t-101 200t-35.5 296.5q0 368 128 568t386 200q174 0 274 -84.5t130 -222.5l-82 -8 q-51 248 -334 248zM244 449q0 -190 109.5 -298t275.5 -108q172 0 278.5 108.5t106.5 278.5q0 187 -102.5 296.5t-280.5 109.5q-182 0 -284.5 -111.5t-102.5 -275.5z" />
<glyph unicode="7" d="M166 1288v72h938v-72q-616 -466 -653 -1288h-84q31 445 195.5 757.5t447.5 530.5h-844z" />
<glyph unicode="8" d="M176 1047q0 152 117 244.5t321 92.5t321.5 -92.5t117.5 -244.5q0 -116 -64 -201.5t-178 -114.5q285 -87 285 -360q0 -186 -132.5 -291t-349.5 -105q-216 0 -348.5 105t-132.5 291q0 273 285 360q-114 29 -178 114.5t-64 201.5zM614 758q177 0 269 79t92 201 q0 130 -96 204.5t-265 74.5t-264.5 -74t-95.5 -205q0 -122 91.5 -201t268.5 -79zM614 43q188 0 295 87t107 241q0 155 -107 241t-295 86t-294.5 -86t-106.5 -241q0 -154 106.5 -241t294.5 -87z" />
<glyph unicode="9" d="M979 911q0 192 -103.5 299t-269.5 107q-170 0 -270 -107.5t-100 -279.5q0 -188 97 -297t273 -109q92 0 164.5 31t117 85t68 123t23.5 148zM575 -25q-322 0 -389 308l80 8q51 -248 322 -248q200 0 308.5 172.5t104.5 536.5q-41 -136 -141 -215.5t-264 -79.5 q-204 0 -322 128t-118 341q0 199 119.5 328.5t330.5 129.5q471 0 471 -641q0 -768 -502 -768z" />
<glyph unicode=":" d="M651 825h-73v199h73v-199zM651 0h-73v199h73v-199z" />
<glyph unicode=";" d="M684 825h-74v199h74v-199zM610 199h74v-199q0 -48 -1.5 -79t-5.5 -66.5t-13.5 -57.5t-24.5 -42.5t-38.5 -31.5t-55.5 -14v74q42 12 53.5 52t11.5 163v201z" />
<glyph unicode="&#x3c;" d="M109 551l968 459v-80l-882 -416l882 -412v-82l-968 459v72z" />
<glyph unicode="=" d="M1059 698h-891v70h891v-70zM168 274v70h891v-70h-891z" />
<glyph unicode="&#x3e;" d="M1118 551v-72l-968 -459v82l882 412l-882 416v80z" />
<glyph unicode="?" d="M631 1384q113 0 203 -34.5t147 -108.5t57 -178q0 -51 -15 -97.5t-36.5 -80.5t-58.5 -70.5t-66 -59.5t-74 -55t-67.5 -49.5t-53 -47t-44.5 -56t-24.5 -65t-10.5 -85.5v-65h-76v65q0 54 11.5 98t28 76.5t49.5 66.5t63 57.5t81 60.5q39 29 54 40.5t47 38.5t46.5 46.5 t33 48.5t25.5 61t7 68q0 123 -92 190.5t-241 67.5q-165 0 -266.5 -91.5t-108.5 -271.5h-76q4 110 40.5 193.5t98.5 134.5t142 76.5t176 25.5zM514 0v199h74v-199h-74z" />
<glyph unicode="@" d="M915 309q-76 0 -113.5 67.5t-31.5 164.5q-27 -103 -94 -160t-156 -57t-149 79.5t-60 231.5q0 120 40.5 223.5t111.5 166t155 62.5q80 0 128 -59t59 -131l12 154h68l-56 -447q-12 -97 9.5 -163t81.5 -66q76 0 127 107t51 292q0 134 -34.5 239.5t-97 172t-146 101 t-183.5 34.5q-151 0 -269.5 -89t-181.5 -239.5t-63 -333.5q0 -179 58 -319t169.5 -220.5t259.5 -80.5q126 0 267 76l24 -62q-145 -78 -299 -78q-169 0 -294.5 89.5t-189 244t-63.5 353.5q0 203 74 368t208 259.5t302 94.5q239 0 381.5 -159.5t142.5 -446.5 q0 -214 -75 -341.5t-173 -127.5zM535 387q68 0 123.5 56t85.5 145.5t30 191.5q0 119 -40 180.5t-118 61.5q-99 0 -168 -113.5t-69 -271.5q0 -124 42.5 -187t113.5 -63z" />
<glyph unicode="A" d="M887 449l-275 806l-274 -806h549zM311 375l-127 -375h-84l471 1360h82l473 -1360h-86l-127 375h-602z" />
<glyph unicode="B" d="M217 0v1360h346q101 0 179 -15.5t142 -52.5t98 -105t34 -165q0 -120 -48.5 -196.5t-162.5 -114.5q137 -25 203.5 -103t66.5 -227q0 -101 -34 -175.5t-97.5 -119t-146 -65.5t-185.5 -21h-395zM295 739h297q165 0 253.5 64.5t88.5 214.5q0 75 -25.5 128t-75 83t-113 43.5 t-147.5 13.5h-278v-547zM295 74h315q381 0 381 305q0 156 -95 223.5t-298 67.5h-303v-596z" />
<glyph unicode="C" d="M1022 406h82q-45 -210 -164 -320.5t-311 -110.5q-130 0 -229 52.5t-160.5 147.5t-92 222t-30.5 283t31 283t93 222t161.5 147t230.5 52q187 0 303.5 -110t161.5 -320h-82q-84 357 -385 357q-206 0 -318 -167t-112 -464q0 -294 111.5 -462.5t316.5 -168.5q310 0 393 357z " />
<glyph unicode="D" d="M193 1360h157q126 0 232 -19t204 -67.5t165.5 -124t108 -195t40.5 -274.5t-40.5 -274.5t-108 -195t-165.5 -124t-204 -67.5t-232 -19h-157v1360zM1016 680q0 112 -22.5 203t-59 153t-91.5 108.5t-111.5 73t-127.5 42.5t-131 21t-131 5h-72v-1212h72q71 0 131 5t131 21 t127.5 42.5t111.5 73t91.5 108.5t59 153t22.5 203z" />
<glyph unicode="E" d="M244 0v1360h782v-74h-704v-545h657v-71h-657v-596h704v-74h-782z" />
<glyph unicode="F" d="M242 0v1360h815v-74h-738v-545h691v-71h-691v-670h-77z" />
<glyph unicode="G" d="M618 49q62 0 118 14.5t109 49t91.5 87.5t62 135t23.5 185v62h-315v73h391v-655h-72l-2 217q-124 -242 -406 -242q-130 0 -231.5 52.5t-166 147.5t-97.5 222.5t-33 282.5q0 208 58 364.5t179.5 248t295.5 91.5q189 0 314 -111.5t169 -320.5h-82q-42 179 -147.5 269 t-255.5 90q-207 0 -327 -168.5t-120 -462.5q0 -291 119 -461t325 -170z" />
<glyph unicode="H" d="M967 1360h77v-1360h-77v668h-705v-668h-78v1360h78v-619h705v619z" />
<glyph unicode="I" d="M186 1286v74h856v-74h-389v-1212h389v-74h-856v74h389v1212h-389z" />
<glyph unicode="J" d="M180 459h78q0 -100 19 -175.5t48.5 -119.5t72 -70.5t83 -35.5t88.5 -9q312 0 312 412v825h-553v74h630v-879q0 -506 -389 -506q-381 0 -389 484z" />
<glyph unicode="K" d="M322 524v-524h-78v1360h78v-729l639 729h98l-496 -563l529 -797h-99l-485 737z" />
<glyph unicode="L" d="M340 1360v-1286h723v-74h-801v1360h78z" />
<glyph unicode="M" d="M653 553h-75l-332 731v-1284h-78v1360h127l321 -717l320 717h127v-1360h-78v1284z" />
<glyph unicode="N" d="M1044 0h-104l-678 1253v-1253h-78v1360h105l678 -1256v1256h77v-1360z" />
<glyph unicode="O" d="M1116 680q0 -210 -57.5 -368t-172 -247.5t-272.5 -89.5t-272 89.5t-171.5 247.5t-57.5 368t57.5 368t171.5 247t272 89t272.5 -89t172 -247t57.5 -368zM614 49q191 0 304.5 165t113.5 466t-113.5 466t-304.5 165t-304 -165t-113 -466t113 -466t304 -165z" />
<glyph unicode="P" d="M238 1360h315q103 0 184 -11t152.5 -38.5t118 -71.5t73.5 -113.5t27 -162.5t-27 -162.5t-73.5 -114t-118 -71.5t-152 -37.5t-184.5 -10.5h-238v-567h-77v1360zM315 641h246q84 0 148 7t126.5 27.5t102 55.5t64 93.5t24.5 138.5t-24.5 138.5t-64.5 93.5t-102 56t-126 28 t-148 7h-246v-645z" />
<glyph unicode="Q" d="M1024 -156l-186 187q-99 -58 -224 -58q-158 0 -272 90t-171.5 248.5t-57.5 368.5t57.5 368t171.5 247t272 89t272.5 -89t172 -247t57.5 -368q0 -203 -56 -360t-161 -246l178 -178zM614 47q94 0 168 41l-139 139l53 52l148 -150q188 158 188 551q0 301 -113.5 466 t-304.5 165t-304 -165t-113 -466t113 -467t304 -166z" />
<glyph unicode="R" d="M504 1286h-221v-596h221q72 0 125 3.5t109.5 14t95 31.5t70.5 53t47.5 82t15.5 115q0 56 -12.5 100.5t-33.5 75.5t-55 53.5t-70 35.5t-87 20t-97 9.5t-108 2.5zM283 616v-616h-78v1360h303q102 0 178.5 -8.5t148 -32t117 -64t72.5 -107t27 -157.5q0 -82 -21.5 -144 t-63.5 -104t-97 -68t-128 -40l330 -635h-88l-321 623q-82 -7 -156 -7h-223z" />
<glyph unicode="S" d="M195 1049q0 69 24 126.5t64 95.5t93.5 64t110 37.5t115.5 11.5q172 0 292.5 -94.5t158.5 -271.5h-82q-39 145 -137 219t-238 74q-55 0 -108 -14t-101.5 -43t-78 -80.5t-29.5 -118.5q0 -117 71.5 -185.5t210.5 -105.5l105 -29q47 -13 81 -23.5t80.5 -28.5t79 -37.5 t67.5 -48.5t57 -62.5t36 -79t14 -97.5q0 -76 -24.5 -140t-66.5 -108.5t-99.5 -75t-122.5 -45t-135 -14.5q-196 0 -325.5 111.5t-162.5 321.5h82q35 -186 141.5 -272.5t260.5 -86.5q52 0 100 8t98 29t87 53.5t60 86t23 122.5q0 68 -26 120t-77 87.5t-106.5 59t-134.5 44.5 l-114 31q-75 20 -133 47.5t-107.5 69.5t-76.5 103.5t-27 138.5z" />
<glyph unicode="T" d="M573 0v1286h-460v74h1001v-74h-463v-1286h-78z" />
<glyph unicode="U" d="M614 49q191 0 272 108t81 359v844h77v-832q0 -207 -45.5 -328t-138 -173t-246.5 -52q-155 0 -247 52t-137.5 173t-45.5 328v832h78v-844q0 -252 80.5 -359.5t271.5 -107.5z" />
<glyph unicode="V" d="M92 1360h86l438 -1256l435 1256h84l-480 -1360h-82z" />
<glyph unicode="W" d="M659 930l230 -817l192 1247h82l-223 -1360h-92l-234 797l-231 -797h-92l-223 1360h82l196 -1247l225 817h88z" />
<glyph unicode="X" d="M612 641l-403 -641h-86l446 711l-405 649h88l362 -580l365 580h86l-408 -647l447 -713h-90z" />
<glyph unicode="Y" d="M76 1360h88l444 -774l453 774h90l-504 -858v-502h-78v504z" />
<glyph unicode="Z" d="M1051 1360v-72l-805 -1214h829v-74h-917v72l805 1214h-734v74h822z" />
<glyph unicode="[" d="M518 1360h273v-70h-199v-1554h199v-70h-273v1694z" />
<glyph unicode="\" d="M375 1360l553 -1360h-76l-553 1360h76z" />
<glyph unicode="]" d="M436 1360h273v-1694h-273v70h199v1554h-199v70z" />
<glyph unicode="^" d="M653 1360l394 -737h-84l-351 647l-350 -647h-82l393 737h80z" />
<glyph unicode="_" d="M975 -74h-723v74h723v-74z" />
<glyph unicode="`" d="M680 1139l-248 221h111l211 -221h-74z" />
<glyph unicode="a" d="M547 41q71 0 134 22.5t117 69t85.5 128.5t31.5 190v110q-167 -13 -266 -26q-112 -14 -188.5 -38t-118 -57t-59 -70t-17.5 -85q0 -110 76 -177t205 -67zM911 616v86q0 68 -16.5 117.5t-43 78.5t-67.5 46.5t-81.5 23t-92.5 5.5q-143 0 -221 -66t-88 -170h-78 q14 139 120.5 221t277.5 82q181 0 272.5 -76.5t91.5 -261.5v-702h-65l-5 203q-46 -106 -142.5 -167t-237.5 -61q-164 0 -256.5 90t-92.5 216q0 57 19 102.5t51 78.5t84.5 58t109 41t136 27t153 17t172.5 11z" />
<glyph unicode="b" d="M662 1040q187 0 305 -141.5t118 -390.5t-118 -391t-305 -142q-129 0 -226.5 64t-144.5 178l-2 -217h-72v1360h74v-561q47 114 144.5 177.5t226.5 63.5zM651 43q157 0 257 123t100 342t-100 342t-257 123q-69 0 -132 -26.5t-116.5 -80t-85.5 -146t-32 -212.5t32 -212.5 t85.5 -146t116.5 -80t132 -26.5z" />
<glyph unicode="c" d="M629 1040q165 0 272.5 -90.5t132.5 -236.5h-76q-28 124 -116 192t-219 68q-167 0 -265 -125t-98 -340q0 -227 101 -346t260 -119q139 0 228 69.5t114 190.5h77q-31 -156 -141.5 -242t-280.5 -86q-142 0 -241.5 69t-147 187t-47.5 275q0 159 50 278t152 187.5t245 68.5z " />
<glyph unicode="d" d="M584 973q-157 0 -257 -123t-100 -342t100 -342t257 -123q69 0 132 26.5t116.5 80t85.5 146t32 212.5t-32 212.5t-85.5 146t-116.5 80t-132 26.5zM944 217q-47 -114 -144.5 -178t-226.5 -64q-187 0 -305 142t-118 391t118 390.5t305 141.5q129 0 226.5 -63.5t144.5 -177.5 v561h74v-1360h-72z" />
<glyph unicode="e" d="M623 975q-165 0 -263 -107t-110 -297h731q-1 80 -24.5 151.5t-67.5 128.5t-112.5 90.5t-153.5 33.5zM1044 297q-32 -153 -142.5 -237.5t-280.5 -84.5q-216 0 -333.5 145.5t-117.5 389.5q0 245 121.5 387.5t333.5 142.5q139 0 240 -69t150.5 -189t45.5 -276l-813 4 q-3 -225 101 -346t276 -121q136 0 224.5 66t119.5 188h75z" />
<glyph unicode="f" d="M504 1024v113q0 65 9 105t34 68t67.5 39t112.5 11h330v-68h-303q-50 0 -79.5 -4.5t-50.5 -13.5t-30 -30t-12.5 -48t-3.5 -74v-98h479v-66h-479v-958h-74v958h-354v66h354z" />
<glyph unicode="g" d="M569 973q-159 0 -257.5 -114t-98.5 -331t98 -330.5t258 -113.5q54 0 105.5 16t99.5 50.5t83.5 85.5t57 126t21.5 166q0 113 -32 201t-86 139.5t-117 78t-132 26.5zM930 799v205h76v-984q0 -220 -123 -309q-107 -80 -295 -80q-164 0 -271.5 81.5t-121.5 215.5h77 q11 -100 91.5 -165.5t224.5 -65.5q152 0 233 55q109 71 109 246v260q-47 -114 -144.5 -178t-226.5 -64q-189 0 -306.5 132.5t-117.5 379.5t117.5 379.5t306.5 132.5q129 0 226.5 -63.5t144.5 -177.5z" />
<glyph unicode="h" d="M299 1360v-572q17 48 45 90t71 80t106.5 60t140.5 22q164 0 251 -90q91 -94 91 -303v-647h-74v623q0 192 -74 274q-70 76 -211 76q-161 0 -253.5 -127.5t-92.5 -343.5v-502h-74v1360h74z" />
<glyph unicode="i" d="M596 1360h74v-182h-74v182zM248 1024h422v-958h389v-66h-852v66h389v892h-348v66z" />
<glyph unicode="j" d="M666 1360h73v-182h-73v182zM524 -334h-309v68h283q58 0 90 6.5t50 29t23 53.5t5 91v1044h-349v66h422v-1116q0 -72 -8 -115t-32 -73.5t-65.5 -42t-109.5 -11.5z" />
<glyph unicode="k" d="M348 0h-74v1360h74v-901l520 565h90l-387 -420l453 -604h-88l-414 551l-174 -189v-362z" />
<glyph unicode="l" d="M236 1360h421v-1294h390v-66h-852v66h389v1228h-348v66z" />
<glyph unicode="m" d="M641 831q61 209 266 209q122 0 172.5 -81.5t50.5 -266.5v-692h-73v666q0 177 -34.5 243t-131.5 66q-106 0 -173 -112.5t-67 -325.5v-537h-73v666q0 177 -34.5 243t-131.5 66q-106 0 -173 -112.5t-67 -325.5v-537h-74v1024h74v-193q29 101 91.5 155t170.5 54 q183 0 207 -209z" />
<glyph unicode="n" d="M299 1024v-236q17 48 45 90t71 80t106.5 60t140.5 22q164 0 251 -90q91 -94 91 -303v-647h-74v623q0 192 -74 274q-70 76 -211 76q-161 0 -253.5 -127.5t-92.5 -343.5v-502h-74v1024h74z" />
<glyph unicode="o" d="M168 508q0 131 35 234t96 167.5t140.5 97.5t172.5 33q94 0 174 -33t141.5 -97.5t96.5 -167.5t35 -234t-35 -234.5t-96.5 -167.5t-141.5 -97.5t-174 -33.5q-93 0 -172.5 33.5t-140.5 97.5t-96 167.5t-35 234.5zM246 508q0 -226 100.5 -345.5t265.5 -119.5t266 119.5 t101 345.5t-101 345.5t-266 119.5t-265.5 -119.5t-100.5 -345.5z" />
<glyph unicode="p" d="M625 43q157 0 256.5 123t99.5 342t-99.5 342t-256.5 123q-69 0 -132 -26.5t-117 -80t-86 -146t-32 -212.5t32 -212.5t86 -146t117 -80t132 -26.5zM264 -334h-74v1358h74v-225q47 114 144.5 177.5t226.5 63.5q187 0 305.5 -141.5t118.5 -390.5t-118.5 -391t-305.5 -142 q-129 0 -226.5 64t-144.5 178v-551z" />
<glyph unicode="q" d="M575 -25q-187 0 -305 142t-118 391t118 390.5t305 141.5q129 0 226.5 -63.5t144.5 -177.5v225h74v-1358h-74v551q-47 -114 -144.5 -178t-226.5 -64zM586 973q-157 0 -257 -123t-100 -342t100 -342t257 -123q69 0 132 26.5t116.5 80t85.5 146t32 212.5t-32 212.5 t-85.5 146t-116.5 80t-132 26.5z" />
<glyph unicode="r" d="M162 1024h422v-209q30 94 110.5 151.5t198.5 57.5h211v-72h-221q-71 0 -123.5 -23t-85.5 -63.5t-53.5 -102.5t-28.5 -132t-8 -160v-405h430v-66h-893v66h389v892h-348v66z" />
<glyph unicode="s" d="M979 764h-76q-55 211 -315 211q-48 0 -96.5 -11.5t-92.5 -34t-72 -61t-28 -86.5q0 -82 54.5 -129.5t156.5 -68.5l152 -29q59 -11 105 -25t92.5 -37t76.5 -51.5t49 -71.5t19 -96q0 -95 -54.5 -164t-142 -102t-197.5 -33q-173 0 -278.5 85.5t-132.5 240.5h77 q25 -123 110.5 -190.5t231.5 -67.5q76 0 143 21t116 72.5t49 125.5q0 97 -70.5 146t-204.5 75l-157 31q-128 26 -199.5 91.5t-71.5 172.5q0 117 108.5 190.5t264.5 73.5q159 0 258.5 -73.5t124.5 -204.5z" />
<glyph unicode="t" d="M442 1024v242h74v-242h479v-66h-479v-700q0 -47 1 -70t6.5 -49.5t14.5 -36.5t28.5 -20t45.5 -12t68 -2h315v-68h-340q-69 0 -108 8.5t-64 35t-33 69.5t-8 118v727h-354v66h354z" />
<glyph unicode="u" d="M909 0v221q-92 -246 -348 -246q-191 0 -270 121q-62 98 -62 305v623h74v-625q0 -185 51 -262q63 -96 215 -96q160 0 250 126.5t90 340.5v516h76v-1024h-76z" />
<glyph unicode="v" d="M240 1024l378 -926l373 926h82l-420 -1024h-71l-424 1024h82z" />
<glyph unicode="w" d="M580 819h69l264 -717l177 922h73l-202 -1024h-80l-267 727l-266 -727h-80l-202 1024h73l176 -922z" />
<glyph unicode="x" d="M612 469l-348 -469h-88l393 526l-370 498h90l325 -436l326 436h86l-369 -496l396 -528h-90z" />
<glyph unicode="y" d="M328 -334h-140v66h142q45 0 67.5 4t47.5 22t44 52t46 98l43 102l-422 1014h84l381 -924l370 924h82l-459 -1124q-42 -102 -73 -147.5t-78.5 -66t-134.5 -20.5z" />
<glyph unicode="z" d="M229 0v63l668 893h-625v68h715v-63l-668 -893h678v-68h-768z" />
<glyph unicode="{" d="M754 -334q-135 0 -179.5 48.5t-44.5 181.5v354q0 50 -5 86t-18 69.5t-41 52t-69 21.5v70q41 3 69 21.5t41 52t18 69.5t5 86v352q0 133 44.5 181.5t179.5 48.5h34v-68h-18q-58 0 -89.5 -6t-49.5 -27.5t-22.5 -50.5t-4.5 -86v-346q0 -127 -30.5 -183.5t-98.5 -76.5v-4 q68 -20 98.5 -76.5t30.5 -183.5v-348q0 -57 4.5 -86t22.5 -50.5t49.5 -27.5t89.5 -6h18v-68h-34z" />
<glyph unicode="|" d="M578 1360h73v-1530h-73v1530z" />
<glyph unicode="}" d="M438 -334v68h17q58 0 90 6.5t50 27.5t23 50.5t5 85.5v348q0 127 30.5 183.5t96.5 76.5v4q-66 20 -96.5 76.5t-30.5 183.5v346q0 56 -5 85.5t-23 50.5t-50 27.5t-90 6.5h-17v68h35q135 0 179 -48.5t44 -181.5v-352q0 -50 5 -86t18 -69.5t41 -52t69 -21.5v-70 q-41 -3 -69 -21.5t-41 -52t-18 -69.5t-5 -86v-354q0 -133 -44 -181.5t-179 -48.5h-35z" />
<glyph unicode="~" d="M836 479q65 0 107 36.5t52 109.5h76q-13 -106 -75 -160.5t-160 -54.5q-53 0 -115.5 22.5t-111 50t-109.5 50t-111 22.5q-65 0 -106.5 -36t-51.5 -109h-75q12 105 74.5 160t158.5 55q59 0 125 -23t114 -50t105.5 -50t102.5 -23z" />
<glyph unicode="&#xa1;" d="M573 1024h74v-199h-74v199zM590 694h47l16 -643v-385h-80v385z" />
<glyph unicode="&#xa2;" d="M1040 303q-29 -148 -130 -233.5t-257 -94.5v-155h-65v155q-197 12 -301.5 156t-104.5 375t105.5 375t300.5 157v142h65v-140q155 -7 256 -96.5t125 -230.5h-76q-26 116 -106 183t-199 75v-926q125 7 205.5 76t104.5 182h77zM260 508q0 -215 91 -333.5t237 -129.5v926 q-152 -12 -240 -135.5t-88 -327.5z" />
<glyph unicode="&#xa3;" d="M1057 14q-101 -43 -230 -43q-73 0 -184 35t-186 35q-150 0 -287 -61l-27 57q49 25 95 59.5t95 86t79 123.5t30 151q0 96 -61 215h-254v59h221q-5 8 -22.5 38t-23.5 40.5t-21 37.5t-21 41.5t-16 39t-14 43t-7.5 41.5t-3.5 45q0 86 36.5 151t98.5 102.5t135.5 55.5 t157.5 18q201 0 308 -109.5t116 -324.5h-80q-7 198 -97 282.5t-249 84.5q-50 0 -96 -7t-93 -25t-80.5 -46.5t-55 -74.5t-21.5 -105q0 -34 6.5 -66t24 -71t28 -59.5t38.5 -69t36 -62.5h524v-59h-491q57 -109 57 -205q0 -116 -62 -221.5t-151 -157.5l2 -2q96 29 168 29 q68 0 165 -36t181 -36q101 0 205 39z" />
<glyph unicode="&#xa4;" d="M1042 188l-133 134q-129 -113 -301 -113q-170 0 -293 110l-131 -131l-53 54l129 133q-102 126 -102 284q0 163 100 287l-127 129l53 53l127 -127q129 113 297 113q175 0 303 -115l131 129l54 -53l-131 -133q98 -125 98 -283t-100 -282l133 -135zM236 659 q0 -159 105.5 -269.5t266.5 -110.5q164 0 272.5 110.5t108.5 269.5q0 162 -108.5 276t-272.5 114q-160 0 -266 -114t-106 -276z" />
<glyph unicode="&#xa5;" d="M645 193v-193h-74v193h-331v69h331v156h-331v71h331v15l-493 856h84l446 -782l455 782h86l-504 -858v-13h344v-71h-344v-156h344v-69h-344z" />
<glyph unicode="&#xa6;" d="M578 1360h73v-582h-73v582zM651 -170h-73v582h73v-582z" />
<glyph unicode="&#xa7;" d="M682 242q22 -12 59 -34t43 -26q228 101 228 258q0 86 -58 148.5t-188 132.5l-277 145q-32 18 -43 23q-231 -98 -231 -250q0 -86 51 -144.5t174 -125.5zM608 -371q-159 0 -258 75t-123 220l80 2q46 -231 303 -231q122 0 198.5 55t76.5 156q0 75 -51 137t-189 133l-235 125 q-136 71 -203.5 148t-67.5 186q0 96 70.5 173t173.5 124q-127 89 -127 219q0 75 50 129t125.5 79t164.5 25q161 0 261.5 -74t121.5 -218h-80q-46 225 -307 225q-117 0 -188.5 -44t-71.5 -120q0 -65 45.5 -115.5t150.5 -107.5l285 -152q137 -73 205.5 -146t68.5 -179 q0 -105 -67 -184.5t-176 -131.5q119 -96 119 -223q0 -133 -100.5 -209t-254.5 -76z" />
<glyph unicode="&#xa8;" d="M784 1329h76v-182h-76v182zM369 1147v182h73v-182h-73z" />
<glyph unicode="&#xa9;" d="M84 848q0 155 71 278.5t191.5 190.5t267.5 67q146 0 267 -67t192.5 -190.5t71.5 -278.5t-71.5 -277t-192.5 -188t-267 -66q-147 0 -267.5 66t-191.5 188t-71 277zM614 373q202 0 335.5 133t133.5 342q0 211 -133.5 345t-335.5 134q-201 0 -335 -134t-134 -345 q0 -208 134.5 -341.5t334.5 -133.5zM608 614q69 0 117.5 36.5t67.5 99.5l61 -17q-26 -72 -88.5 -120t-157.5 -48q-116 0 -187 80t-71 215q0 132 72.5 209.5t187.5 77.5q94 0 156 -48.5t82 -121.5l-57 -19q-19 64 -66.5 101t-116.5 37q-84 0 -140 -61.5t-56 -174.5 q0 -115 56.5 -180.5t139.5 -65.5z" />
<glyph unicode="&#xaa;" d="M588 848q37 0 70.5 11t62.5 34t46 65t17 97v47l-135 -12q-104 -9 -152 -38t-48 -85q0 -54 38 -86.5t101 -32.5zM463 1204l-66 4q7 82 71.5 129t162.5 47q111 0 163 -46t52 -156q0 -21 -1 -88.5t-1 -79.5q-2 -72 6 -211h-64l-4 102q-50 -117 -204 -117q-93 0 -146 52.5 t-53 130.5q0 79 63 119q64 40 213 57l123 12v31q0 81 -40 110t-113 29q-74 0 -115 -34.5t-47 -90.5z" />
<glyph unicode="&#xab;" d="M897 92l-301 428l299 428h84l-291 -426l291 -430h-82zM545 92l-301 428l299 428h86l-293 -426l293 -430h-84z" />
<glyph unicode="&#xac;" d="M1004 739h-918v72h991v-616h-73v544z" />
<glyph unicode="&#xae;" d="M84 848q0 155 71 278.5t191.5 190.5t267.5 67q146 0 267 -67t192.5 -190.5t71.5 -278.5t-71.5 -277t-192.5 -188t-267 -66q-147 0 -267.5 66t-191.5 188t-71 277zM614 373q202 0 335.5 133t133.5 342q0 211 -133.5 345t-335.5 134q-201 0 -335 -134t-134 -345 q0 -208 134.5 -341.5t334.5 -133.5zM782 985q0 109 -166 109h-135v-220h142q82 0 120.5 27.5t38.5 83.5zM481 823v-241h-61v563h190q53 0 92.5 -6.5t74 -23t53 -49.5t18.5 -81q0 -53 -30 -91.5t-87 -55.5l127 -256h-70l-120 243q-10 -2 -35 -2h-152z" />
<glyph unicode="&#xaf;" d="M862 1196h-497v66h497v-66z" />
<glyph unicode="&#xb0;" d="M346 1114q0 114 77 192t189 78q115 0 192 -78t77 -192t-77 -192t-192 -78q-112 0 -189 78t-77 192zM612 911q85 0 138 57t53 146t-53 146t-138 57q-84 0 -136 -57t-52 -146t52 -146t136 -57z" />
<glyph unicode="&#xb1;" d="M575 625v387h76v-387h477v-70h-477v-395h-76v395h-477v70h477zM98 0v70h1030v-70h-1030z" />
<glyph unicode="&#xb4;" d="M774 1360l-248 -221h-73l211 221h110z" />
<glyph unicode="&#xb5;" d="M229 -334q15 102 15 283v1075h73v-551q0 -196 79.5 -314t226.5 -118q146 0 224.5 118t78.5 314v551h73v-1024h-73v217q-36 -109 -110 -175.5t-193 -66.5q-121 0 -195.5 66.5t-110.5 175.5v-252q0 -177 -14 -299h-74z" />
<glyph unicode="&#xb6;" d="M532 680q-69 3 -132 26.5t-112.5 65t-78.5 104.5t-29 140q0 158 112.5 251t303.5 93h332v-1530h-76v1460h-244v-1460h-76v850z" />
<glyph unicode="&#xb7;" d="M555 455v123h119v-123h-119z" />
<glyph unicode="&#xb8;" d="M457 -340l18 55q53 -22 105 -22q50 0 85 19.5t35 60.5q0 37 -28 56t-68 19q-48 0 -82 -18l-26 27l90 145h57l-63 -106q27 6 53 6q61 0 99 -33t38 -90q0 -70 -53.5 -105.5t-128.5 -35.5q-72 0 -131 22z" />
<glyph unicode="&#xba;" d="M350 1087q0 143 76 220t188 77q113 0 189 -77t76 -220q0 -145 -76 -222t-189 -77q-112 0 -188 77t-76 222zM422 1087q0 -118 53 -178.5t139 -60.5t140.5 60.5t54.5 178.5t-54.5 179t-140.5 61t-139 -61t-53 -179z" />
<glyph unicode="&#xbb;" d="M633 520l-301 -428h-82l291 430l-291 426h84zM983 520l-299 -428h-84l293 430l-293 426h86z" />
<glyph unicode="&#xbf;" d="M616 1024h74v-199h-74v199zM573 -348q-113 0 -203 34.5t-147 108.5t-57 178q0 51 15 97.5t36.5 80.5t58.5 70.5t66 59.5t74 55t67.5 49.5t53 47t44.5 56t24.5 65t10.5 85.5v66h76v-66q0 -66 -14.5 -116.5t-49.5 -93.5t-69.5 -72.5t-99.5 -75.5q-45 -33 -64.5 -48.5 t-54.5 -48t-51 -59t-29.5 -66t-13.5 -82.5q0 -123 92.5 -190.5t241.5 -67.5q165 0 266 92.5t108 272.5h76q-4 -110 -40.5 -194t-98.5 -135.5t-142 -77t-176 -25.5z" />
<glyph unicode="&#xc0;" d="M629 1430l-275 215h121l236 -215h-82zM887 449l-275 806l-274 -806h549zM311 375l-127 -375h-84l471 1360h82l473 -1360h-86l-127 375h-602z" />
<glyph unicode="&#xc1;" d="M793 1645l-275 -215h-82l236 215h121zM887 449l-275 806l-274 -806h549zM311 375l-127 -375h-84l471 1360h82l473 -1360h-86l-127 375h-602z" />
<glyph unicode="&#xc2;" d="M664 1645l260 -215h-90l-220 157l-219 -157h-90l264 215h95zM887 449l-275 806l-274 -806h549zM311 375l-127 -375h-84l471 1360h82l473 -1360h-86l-127 375h-602z" />
<glyph unicode="&#xc3;" d="M752 1516q85 0 106 110h66q-14 -85 -57.5 -131.5t-112.5 -46.5q-37 0 -77 17.5t-69 39t-65.5 39t-67.5 17.5q-82 0 -104 -113h-66q12 85 58 131.5t112 46.5q50 0 100.5 -27.5t95.5 -55t81 -27.5zM887 449l-275 806l-274 -806h549zM311 375l-127 -375h-84l471 1360h82 l473 -1360h-86l-127 375h-602z" />
<glyph unicode="&#xc4;" d="M780 1628h80v-182h-80v182zM369 1628h77v-182h-77v182zM887 449l-275 806l-274 -806h549zM311 375l-127 -375h-84l471 1360h82l473 -1360h-86l-127 375h-602z" />
<glyph unicode="&#xc5;" d="M614 1733q69 0 116.5 -44t47.5 -112q0 -67 -48 -111.5t-116 -44.5q-70 0 -117.5 44.5t-47.5 111.5q0 68 47.5 112t117.5 44zM614 1477q42 0 72.5 27.5t30.5 72.5t-30.5 73.5t-72.5 28.5q-43 0 -73.5 -28t-30.5 -74t30.5 -73t73.5 -27zM612 1255l-274 -806h549zM1040 0 l-127 375h-602l-127 -375h-84l471 1360h82l473 -1360h-86z" />
<glyph unicode="&#xc6;" d="M625 449v739l-330 -739h330zM262 375l-168 -375h-84l615 1360h536v-74h-459v-545h412v-71h-412v-596h459v-74h-536v375h-363z" />
<glyph unicode="&#xc7;" d="M588 -362q-72 0 -131 22l18 55q53 -22 105 -22q50 0 85 19.5t35 60.5q0 37 -28 56t-68 19q-48 0 -82 -18l-26 27l75 120q-152 15 -256 111t-151 245.5t-47 346.5q0 156 31 283t93 222t161.5 147t230.5 52q187 0 303.5 -110t161.5 -320h-82q-84 357 -385 357 q-206 0 -318 -167t-112 -464q0 -294 111.5 -462.5t316.5 -168.5q310 0 393 357h82q-45 -210 -164 -320.5t-311 -110.5h-2l-47 -79q27 6 53 6q61 0 99 -33t38 -90q0 -70 -53.5 -105.5t-128.5 -35.5z" />
<glyph unicode="&#xc8;" d="M629 1430l-275 215h121l236 -215h-82zM244 0v1360h782v-74h-704v-545h657v-71h-657v-596h704v-74h-782z" />
<glyph unicode="&#xc9;" d="M915 1645l-274 -215h-82l236 215h120zM244 0v1360h782v-74h-704v-545h657v-71h-657v-596h704v-74h-782z" />
<glyph unicode="&#xca;" d="M684 1645l260 -215h-90l-219 157l-219 -157h-90l264 215h94zM244 0v1360h782v-74h-704v-545h657v-71h-657v-596h704v-74h-782z" />
<glyph unicode="&#xcb;" d="M801 1628h80v-182h-80v182zM389 1628h78v-182h-78v182zM244 0v1360h782v-74h-704v-545h657v-71h-657v-596h704v-74h-782z" />
<glyph unicode="&#xcc;" d="M711 1430l-275 215h121l236 -215h-82zM186 1286v74h856v-74h-389v-1212h389v-74h-856v74h389v1212h-389z" />
<glyph unicode="&#xcd;" d="M793 1645l-275 -215h-82l236 215h121zM186 1286v74h856v-74h-389v-1212h389v-74h-856v74h389v1212h-389z" />
<glyph unicode="&#xce;" d="M664 1645l260 -215h-90l-220 157l-219 -157h-90l264 215h95zM186 1286v74h856v-74h-389v-1212h389v-74h-856v74h389v1212h-389z" />
<glyph unicode="&#xcf;" d="M780 1628h80v-182h-80v182zM369 1628h77v-182h-77v182zM186 1286v74h856v-74h-389v-1212h389v-74h-856v74h389v1212h-389z" />
<glyph unicode="&#xd0;" d="M350 0h-157v670h-144v71h144v619h157q126 0 232 -19t204 -67.5t165.5 -124t108 -195t40.5 -274.5t-40.5 -274.5t-108 -195t-165.5 -124t-204 -67.5t-232 -19zM270 74h72q71 0 131 5t131 21t127.5 42.5t111.5 73t91.5 108.5t59 153t22.5 203t-22.5 203t-59 153 t-91.5 108.5t-111.5 73t-127.5 42.5t-131 21t-131 5h-72v-545h355v-71h-355v-596z" />
<glyph unicode="&#xd1;" d="M772 1516q86 0 107 110h65q-14 -85 -57.5 -131.5t-112.5 -46.5q-37 0 -77 17.5t-68.5 39t-65 39t-67.5 17.5q-83 0 -105 -113h-65q12 85 58 131.5t112 46.5q50 0 100 -27.5t95 -55t81 -27.5zM1044 0h-104l-678 1253v-1253h-78v1360h105l678 -1256v1256h77v-1360z" />
<glyph unicode="&#xd2;" d="M670 1430l-275 215h121l236 -215h-82zM1116 680q0 -210 -57.5 -368t-172 -247.5t-272.5 -89.5t-272 89.5t-171.5 247.5t-57.5 368t57.5 368t171.5 247t272 89t272.5 -89t172 -247t57.5 -368zM614 49q191 0 304.5 165t113.5 466t-113.5 466t-304.5 165t-304 -165 t-113 -466t113 -466t304 -165z" />
<glyph unicode="&#xd3;" d="M895 1645l-274 -215h-82l235 215h121zM1116 680q0 -210 -57.5 -368t-172 -247.5t-272.5 -89.5t-272 89.5t-171.5 247.5t-57.5 368t57.5 368t171.5 247t272 89t272.5 -89t172 -247t57.5 -368zM614 49q191 0 304.5 165t113.5 466t-113.5 466t-304.5 165t-304 -165 t-113 -466t113 -466t304 -165z" />
<glyph unicode="&#xd4;" d="M664 1645l260 -215h-90l-220 157l-219 -157h-90l264 215h95zM1116 680q0 -210 -57.5 -368t-172 -247.5t-272.5 -89.5t-272 89.5t-171.5 247.5t-57.5 368t57.5 368t171.5 247t272 89t272.5 -89t172 -247t57.5 -368zM614 49q191 0 304.5 165t113.5 466t-113.5 466 t-304.5 165t-304 -165t-113 -466t113 -466t304 -165z" />
<glyph unicode="&#xd5;" d="M752 1516q85 0 106 110h66q-14 -85 -57.5 -131.5t-112.5 -46.5q-37 0 -77 17.5t-69 39t-65.5 39t-67.5 17.5q-82 0 -104 -113h-66q12 85 58 131.5t112 46.5q50 0 100.5 -27.5t95.5 -55t81 -27.5zM1116 680q0 -210 -57.5 -368t-172 -247.5t-272.5 -89.5t-272 89.5 t-171.5 247.5t-57.5 368t57.5 368t171.5 247t272 89t272.5 -89t172 -247t57.5 -368zM614 49q191 0 304.5 165t113.5 466t-113.5 466t-304.5 165t-304 -165t-113 -466t113 -466t304 -165z" />
<glyph unicode="&#xd6;" d="M780 1628h80v-182h-80v182zM369 1628h77v-182h-77v182zM1116 680q0 -210 -57.5 -368t-172 -247.5t-272.5 -89.5t-272 89.5t-171.5 247.5t-57.5 368t57.5 368t171.5 247t272 89t272.5 -89t172 -247t57.5 -368zM614 49q191 0 304.5 165t113.5 466t-113.5 466t-304.5 165 t-304 -165t-113 -466t113 -466t304 -165z" />
<glyph unicode="&#xd7;" d="M1049 131l-54 -53l-383 381l-381 -381l-53 53l381 381l-381 383l53 53l381 -383l383 383l54 -53l-383 -383z" />
<glyph unicode="&#xd8;" d="M614 -25q-224 0 -354 172l-115 -151l-53 39l129 170q-108 182 -108 475q0 210 57.5 368t171.5 247t272 89q231 0 365 -186l141 186l54 -38l-158 -207q100 -180 100 -459q0 -210 -57.5 -368t-172 -247.5t-272.5 -89.5zM197 680q0 -246 77 -406l654 859q-113 178 -314 178 q-191 0 -304 -165t-113 -466zM614 49q191 0 304.5 165t113.5 466q0 234 -69 387l-652 -854q111 -164 303 -164z" />
<glyph unicode="&#xd9;" d="M670 1430l-275 215h121l236 -215h-82zM614 49q191 0 272 108t81 359v844h77v-832q0 -207 -45.5 -328t-138 -173t-246.5 -52q-155 0 -247 52t-137.5 173t-45.5 328v832h78v-844q0 -252 80.5 -359.5t271.5 -107.5z" />
<glyph unicode="&#xda;" d="M874 1645l-274 -215h-82l236 215h120zM614 49q191 0 272 108t81 359v844h77v-832q0 -207 -45.5 -328t-138 -173t-246.5 -52q-155 0 -247 52t-137.5 173t-45.5 328v832h78v-844q0 -252 80.5 -359.5t271.5 -107.5z" />
<glyph unicode="&#xdb;" d="M664 1645l260 -215h-90l-220 157l-219 -157h-90l264 215h95zM614 49q191 0 272 108t81 359v844h77v-832q0 -207 -45.5 -328t-138 -173t-246.5 -52q-155 0 -247 52t-137.5 173t-45.5 328v832h78v-844q0 -252 80.5 -359.5t271.5 -107.5z" />
<glyph unicode="&#xdc;" d="M780 1628h80v-182h-80v182zM369 1628h77v-182h-77v182zM614 49q191 0 272 108t81 359v844h77v-832q0 -207 -45.5 -328t-138 -173t-246.5 -52q-155 0 -247 52t-137.5 173t-45.5 328v832h78v-844q0 -252 80.5 -359.5t271.5 -107.5z" />
<glyph unicode="&#xdd;" d="M895 1645l-274 -215h-82l235 215h121zM76 1360h88l444 -774l453 774h90l-504 -858v-502h-78v504z" />
<glyph unicode="&#xde;" d="M315 1085h209q103 0 184 -11t152.5 -38.5t118 -71.5t73.5 -113.5t27 -162.5q0 -116 -39.5 -195t-116.5 -122t-172.5 -60.5t-226.5 -17.5h-209v-293h-77v1360h77v-275zM315 367h217q84 0 148 7t126.5 27.5t102 55t64 93t24.5 138.5t-24.5 138.5t-64.5 94t-102 56.5 t-126 28t-148 7h-217v-645z" />
<glyph unicode="&#xdf;" d="M276 0h-73v928q0 227 94 341.5t307 114.5q164 0 262.5 -85t98.5 -230q0 -118 -61.5 -196.5t-166.5 -110.5q63 -9 120.5 -36t106 -72t77 -115t28.5 -156q0 -109 -40 -190t-110.5 -127.5t-156 -68.5t-187.5 -22q-88 0 -188 17l14 74q93 -19 183 -19q65 0 122 10t110 34 t90.5 61t60 95t22.5 132q0 86 -33.5 152.5t-91 107.5t-131 61.5t-158.5 20.5h-10v72h10q145 0 228.5 73.5t83.5 194.5q0 117 -77 186.5t-206 69.5q-179 0 -253.5 -97.5t-74.5 -306.5v-913z" />
<glyph unicode="&#xe0;" d="M659 1139l-247 221h110l211 -221h-74zM547 41q71 0 134 22.5t117 69t85.5 128.5t31.5 190v110q-167 -13 -266 -26q-112 -14 -188.5 -38t-118 -57t-59 -70t-17.5 -85q0 -110 76 -177t205 -67zM911 616v86q0 68 -16.5 117.5t-43 78.5t-67.5 46.5t-81.5 23t-92.5 5.5 q-143 0 -221 -66t-88 -170h-78q14 139 120.5 221t277.5 82q181 0 272.5 -76.5t91.5 -261.5v-702h-65l-5 203q-46 -106 -142.5 -167t-237.5 -61q-164 0 -256.5 90t-92.5 216q0 57 19 102.5t51 78.5t84.5 58t109 41t136 27t153 17t172.5 11z" />
<glyph unicode="&#xe1;" d="M836 1360l-248 -221h-74l211 221h111zM547 41q71 0 134 22.5t117 69t85.5 128.5t31.5 190v110q-167 -13 -266 -26q-112 -14 -188.5 -38t-118 -57t-59 -70t-17.5 -85q0 -110 76 -177t205 -67zM911 616v86q0 68 -16.5 117.5t-43 78.5t-67.5 46.5t-81.5 23t-92.5 5.5 q-143 0 -221 -66t-88 -170h-78q14 139 120.5 221t277.5 82q181 0 272.5 -76.5t91.5 -261.5v-702h-65l-5 203q-46 -106 -142.5 -167t-237.5 -61q-164 0 -256.5 90t-92.5 216q0 57 19 102.5t51 78.5t84.5 58t109 41t136 27t153 17t172.5 11z" />
<glyph unicode="&#xe2;" d="M651 1360l260 -221h-73l-224 155l-225 -155h-74l263 221h73zM547 41q71 0 134 22.5t117 69t85.5 128.5t31.5 190v110q-167 -13 -266 -26q-112 -14 -188.5 -38t-118 -57t-59 -70t-17.5 -85q0 -110 76 -177t205 -67zM911 616v86q0 68 -16.5 117.5t-43 78.5t-67.5 46.5 t-81.5 23t-92.5 5.5q-143 0 -221 -66t-88 -170h-78q14 139 120.5 221t277.5 82q181 0 272.5 -76.5t91.5 -261.5v-702h-65l-5 203q-46 -106 -142.5 -167t-237.5 -61q-164 0 -256.5 90t-92.5 216q0 57 19 102.5t51 78.5t84.5 58t109 41t136 27t153 17t172.5 11z" />
<glyph unicode="&#xe3;" d="M729 1214q89 0 107 111h67q-14 -85 -58.5 -131.5t-111.5 -46.5q-38 0 -78 17.5t-69 39t-65 39t-66 17.5q-83 0 -105 -113h-67q12 85 58 131.5t112 46.5q39 0 80 -17.5t69.5 -38t63.5 -38t63 -17.5zM547 41q71 0 134 22.5t117 69t85.5 128.5t31.5 190v110 q-167 -13 -266 -26q-112 -14 -188.5 -38t-118 -57t-59 -70t-17.5 -85q0 -110 76 -177t205 -67zM911 616v86q0 68 -16.5 117.5t-43 78.5t-67.5 46.5t-81.5 23t-92.5 5.5q-143 0 -221 -66t-88 -170h-78q14 139 120.5 221t277.5 82q181 0 272.5 -76.5t91.5 -261.5v-702h-65 l-5 203q-46 -106 -142.5 -167t-237.5 -61q-164 0 -256.5 90t-92.5 216q0 57 19 102.5t51 78.5t84.5 58t109 41t136 27t153 17t172.5 11z" />
<glyph unicode="&#xe4;" d="M784 1329h76v-182h-76v182zM369 1147v182h73v-182h-73zM547 41q71 0 134 22.5t117 69t85.5 128.5t31.5 190v110q-167 -13 -266 -26q-112 -14 -188.5 -38t-118 -57t-59 -70t-17.5 -85q0 -110 76 -177t205 -67zM911 616v86q0 68 -16.5 117.5t-43 78.5t-67.5 46.5t-81.5 23 t-92.5 5.5q-143 0 -221 -66t-88 -170h-78q14 139 120.5 221t277.5 82q181 0 272.5 -76.5t91.5 -261.5v-702h-65l-5 203q-46 -106 -142.5 -167t-237.5 -61q-164 0 -256.5 90t-92.5 216q0 57 19 102.5t51 78.5t84.5 58t109 41t136 27t153 17t172.5 11z" />
<glyph unicode="&#xe5;" d="M614 1425q68 0 116 -44t48 -111q0 -68 -47.5 -112t-116.5 -44q-70 0 -117.5 44t-47.5 112q0 67 47.5 111t117.5 44zM614 1165q43 0 74 29.5t31 75.5t-31 75t-74 29t-74.5 -29t-31.5 -75t31.5 -75.5t74.5 -29.5zM547 41q71 0 134 22.5t117 69t85.5 128.5t31.5 190v110 q-167 -13 -266 -26q-112 -14 -188.5 -38t-118 -57t-59 -70t-17.5 -85q0 -110 76 -177t205 -67zM911 616v86q0 68 -16.5 117.5t-43 78.5t-67.5 46.5t-81.5 23t-92.5 5.5q-143 0 -221 -66t-88 -170h-78q14 139 120.5 221t277.5 82q181 0 272.5 -76.5t91.5 -261.5v-702h-65 l-5 203q-46 -106 -142.5 -167t-237.5 -61q-164 0 -256.5 90t-92.5 216q0 57 19 102.5t51 78.5t84.5 58t109 41t136 27t153 17t172.5 11z" />
<glyph unicode="&#xe6;" d="M1153 293q-26 -157 -92 -237.5t-191 -80.5q-109 0 -173.5 58.5t-96.5 171.5q-68 -230 -303 -230q-119 0 -183.5 83.5t-64.5 211.5q0 137 99 215t286 109l125 20v86q0 84 -16 140t-46.5 83.5t-63.5 37.5t-79 10q-66 0 -110.5 -34t-63 -85.5t-20.5 -120.5l-74 4 q8 140 80.5 221.5t195.5 81.5q103 0 166.5 -43t89.5 -137q74 180 259 180q304 0 290 -542h-532q-6 -453 237 -453q96 0 142.5 63t66.5 197zM1092 561q-1 68 -6.5 123.5t-20.5 111t-39 93t-63.5 61t-92.5 23.5q-111 0 -168 -110t-67 -302h457zM309 43q128 0 191 89.5 t63 301.5v115l-139 -23q-297 -49 -297 -262q0 -97 46.5 -159t135.5 -62z" />
<glyph unicode="&#xe7;" d="M588 -362q-72 0 -131 22l18 55q53 -22 105 -22q50 0 85 19.5t35 60.5q0 37 -28 56t-68 19q-48 0 -82 -18l-26 27l75 120q-189 17 -289 160t-100 369q0 159 50 278t152 187.5t245 68.5q165 0 272.5 -90.5t132.5 -236.5h-76q-28 124 -116 192t-219 68q-167 0 -265 -125 t-98 -340q0 -227 101 -346t260 -119q139 0 228 69.5t114 190.5h77q-31 -155 -140 -241.5t-273 -86.5l-47 -79q27 6 53 6q61 0 99 -33t38 -90q0 -70 -53.5 -105.5t-128.5 -35.5z" />
<glyph unicode="&#xe8;" d="M659 1139l-247 221h110l211 -221h-74zM623 975q-165 0 -263 -107t-110 -297h731q-1 80 -24.5 151.5t-67.5 128.5t-112.5 90.5t-153.5 33.5zM1044 297q-32 -153 -142.5 -237.5t-280.5 -84.5q-216 0 -333.5 145.5t-117.5 389.5q0 245 121.5 387.5t333.5 142.5 q139 0 240 -69t150.5 -189t45.5 -276l-813 4q-3 -225 101 -346t276 -121q136 0 224.5 66t119.5 188h75z" />
<glyph unicode="&#xe9;" d="M856 1360l-248 -221h-73l210 221h111zM623 975q-165 0 -263 -107t-110 -297h731q-1 80 -24.5 151.5t-67.5 128.5t-112.5 90.5t-153.5 33.5zM1044 297q-32 -153 -142.5 -237.5t-280.5 -84.5q-216 0 -333.5 145.5t-117.5 389.5q0 245 121.5 387.5t333.5 142.5 q139 0 240 -69t150.5 -189t45.5 -276l-813 4q-3 -225 101 -346t276 -121q136 0 224.5 66t119.5 188h75z" />
<glyph unicode="&#xea;" d="M651 1360l260 -221h-73l-224 155l-225 -155h-74l263 221h73zM623 975q-165 0 -263 -107t-110 -297h731q-1 80 -24.5 151.5t-67.5 128.5t-112.5 90.5t-153.5 33.5zM1044 297q-32 -153 -142.5 -237.5t-280.5 -84.5q-216 0 -333.5 145.5t-117.5 389.5q0 245 121.5 387.5 t333.5 142.5q139 0 240 -69t150.5 -189t45.5 -276l-813 4q-3 -225 101 -346t276 -121q136 0 224.5 66t119.5 188h75z" />
<glyph unicode="&#xeb;" d="M784 1329h76v-182h-76v182zM369 1147v182h73v-182h-73zM623 975q-165 0 -263 -107t-110 -297h731q-1 80 -24.5 151.5t-67.5 128.5t-112.5 90.5t-153.5 33.5zM1044 297q-32 -153 -142.5 -237.5t-280.5 -84.5q-216 0 -333.5 145.5t-117.5 389.5q0 245 121.5 387.5 t333.5 142.5q139 0 240 -69t150.5 -189t45.5 -276l-813 4q-3 -225 101 -346t276 -121q136 0 224.5 66t119.5 188h75z" />
<glyph unicode="&#xec;" d="M700 1139l-247 221h110l211 -221h-74zM248 1024h422v-958h389v-66h-852v66h389v892h-348v66z" />
<glyph unicode="&#xed;" d="M774 1360l-248 -221h-73l211 221h110zM248 1024h422v-958h389v-66h-852v66h389v892h-348v66z" />
<glyph unicode="&#xee;" d="M651 1360l260 -221h-73l-224 155l-225 -155h-74l263 221h73zM248 1024h422v-958h389v-66h-852v66h389v892h-348v66z" />
<glyph unicode="&#xef;" d="M784 1329h76v-182h-76v182zM369 1147v182h73v-182h-73zM248 1024h422v-958h389v-66h-852v66h389v892h-348v66z" />
<glyph unicode="&#xf0;" d="M596 -25q-193 0 -313.5 141t-120.5 384q0 239 122.5 379.5t313.5 140.5q122 0 206 -56.5t130 -140.5l2 2q-65 223 -287 377l-182 -112l-61 28l190 119q-60 37 -172 86l35 61q108 -45 203 -106l172 106l63 -30l-182 -113q325 -242 325 -690q0 -285 -123 -430.5 t-321 -145.5zM240 500q0 -213 99.5 -335t256.5 -122q70 0 133.5 26.5t116 79.5t84 143.5t31.5 207.5t-30.5 206.5t-83 141.5t-115.5 78t-134 26q-156 0 -257 -120.5t-101 -331.5z" />
<glyph unicode="&#xf1;" d="M770 1214q88 0 107 111h67q-14 -85 -58.5 -131.5t-111.5 -46.5q-38 0 -78 17.5t-69 39t-65 39t-66 17.5q-83 0 -105 -113h-67q12 85 58 131.5t112 46.5q39 0 80 -17.5t69.5 -38t63.5 -38t63 -17.5zM299 1024v-236q17 48 45 90t71 80t106.5 60t140.5 22q164 0 251 -90 q91 -94 91 -303v-647h-74v623q0 192 -74 274q-70 76 -211 76q-161 0 -253.5 -127.5t-92.5 -343.5v-502h-74v1024h74z" />
<glyph unicode="&#xf2;" d="M659 1139l-247 221h110l211 -221h-74zM168 508q0 131 35 234t96 167.5t140.5 97.5t172.5 33q94 0 174 -33t141.5 -97.5t96.5 -167.5t35 -234t-35 -234.5t-96.5 -167.5t-141.5 -97.5t-174 -33.5q-93 0 -172.5 33.5t-140.5 97.5t-96 167.5t-35 234.5zM246 508 q0 -226 100.5 -345.5t265.5 -119.5t266 119.5t101 345.5t-101 345.5t-266 119.5t-265.5 -119.5t-100.5 -345.5z" />
<glyph unicode="&#xf3;" d="M856 1360l-248 -221h-73l210 221h111zM168 508q0 131 35 234t96 167.5t140.5 97.5t172.5 33q94 0 174 -33t141.5 -97.5t96.5 -167.5t35 -234t-35 -234.5t-96.5 -167.5t-141.5 -97.5t-174 -33.5q-93 0 -172.5 33.5t-140.5 97.5t-96 167.5t-35 234.5zM246 508 q0 -226 100.5 -345.5t265.5 -119.5t266 119.5t101 345.5t-101 345.5t-266 119.5t-265.5 -119.5t-100.5 -345.5z" />
<glyph unicode="&#xf4;" d="M651 1360l260 -221h-73l-224 155l-225 -155h-74l263 221h73zM168 508q0 131 35 234t96 167.5t140.5 97.5t172.5 33q94 0 174 -33t141.5 -97.5t96.5 -167.5t35 -234t-35 -234.5t-96.5 -167.5t-141.5 -97.5t-174 -33.5q-93 0 -172.5 33.5t-140.5 97.5t-96 167.5t-35 234.5z M246 508q0 -226 100.5 -345.5t265.5 -119.5t266 119.5t101 345.5t-101 345.5t-266 119.5t-265.5 -119.5t-100.5 -345.5z" />
<glyph unicode="&#xf5;" d="M750 1214q88 0 106 111h68q-14 -85 -58.5 -131.5t-111.5 -46.5q-48 0 -98.5 28.5t-96.5 56.5t-84 28q-44 0 -68.5 -28.5t-35.5 -84.5h-68q12 85 58 131.5t112 46.5q39 0 80.5 -17.5t70 -38t63.5 -38t63 -17.5zM168 508q0 131 35 234t96 167.5t140.5 97.5t172.5 33 q94 0 174 -33t141.5 -97.5t96.5 -167.5t35 -234t-35 -234.5t-96.5 -167.5t-141.5 -97.5t-174 -33.5q-93 0 -172.5 33.5t-140.5 97.5t-96 167.5t-35 234.5zM246 508q0 -226 100.5 -345.5t265.5 -119.5t266 119.5t101 345.5t-101 345.5t-266 119.5t-265.5 -119.5 t-100.5 -345.5z" />
<glyph unicode="&#xf6;" d="M784 1329h76v-182h-76v182zM369 1147v182h73v-182h-73zM168 508q0 131 35 234t96 167.5t140.5 97.5t172.5 33q94 0 174 -33t141.5 -97.5t96.5 -167.5t35 -234t-35 -234.5t-96.5 -167.5t-141.5 -97.5t-174 -33.5q-93 0 -172.5 33.5t-140.5 97.5t-96 167.5t-35 234.5z M246 508q0 -226 100.5 -345.5t265.5 -119.5t266 119.5t101 345.5t-101 345.5t-266 119.5t-265.5 -119.5t-100.5 -345.5z" />
<glyph unicode="&#xf7;" d="M567 723v178h97v-178h-97zM117 479v72h993v-72h-993zM567 117v178h97v-178h-97z" />
<glyph unicode="&#xf8;" d="M612 -25q-185 0 -305 123l-102 -121l-49 43l108 130q-96 140 -96 358q0 131 35 234t96 167.5t140.5 97.5t172.5 33q188 0 306 -118l86 102l51 -41l-97 -113q101 -138 101 -362q0 -131 -35 -234.5t-96.5 -167.5t-141.5 -97.5t-174 -33.5zM246 508q0 -186 69 -299l553 655 q-100 109 -256 109q-165 0 -265.5 -119.5t-100.5 -345.5zM612 43q165 0 266 119.5t101 345.5q0 181 -70 301l-555 -655q99 -111 258 -111z" />
<glyph unicode="&#xf9;" d="M659 1139l-247 221h110l211 -221h-74zM909 0v221q-92 -246 -348 -246q-191 0 -270 121q-62 98 -62 305v623h74v-625q0 -185 51 -262q63 -96 215 -96q160 0 250 126.5t90 340.5v516h76v-1024h-76z" />
<glyph unicode="&#xfa;" d="M856 1360l-248 -221h-73l210 221h111zM909 0v221q-92 -246 -348 -246q-191 0 -270 121q-62 98 -62 305v623h74v-625q0 -185 51 -262q63 -96 215 -96q160 0 250 126.5t90 340.5v516h76v-1024h-76z" />
<glyph unicode="&#xfb;" d="M651 1360l260 -221h-73l-224 155l-225 -155h-74l263 221h73zM909 0v221q-92 -246 -348 -246q-191 0 -270 121q-62 98 -62 305v623h74v-625q0 -185 51 -262q63 -96 215 -96q160 0 250 126.5t90 340.5v516h76v-1024h-76z" />
<glyph unicode="&#xfc;" d="M784 1329h76v-182h-76v182zM369 1147v182h73v-182h-73zM909 0v221q-92 -246 -348 -246q-191 0 -270 121q-62 98 -62 305v623h74v-625q0 -185 51 -262q63 -96 215 -96q160 0 250 126.5t90 340.5v516h76v-1024h-76z" />
<glyph unicode="&#xfd;" d="M860 1360l-248 -221h-73l211 221h110zM328 -334h-140v66h142q45 0 67.5 4t47.5 22t44 52t46 98l43 102l-422 1014h84l381 -924l370 924h82l-459 -1124q-42 -102 -73 -147.5t-78.5 -66t-134.5 -20.5z" />
<glyph unicode="&#xfe;" d="M625 43q157 0 256.5 123t99.5 342t-99.5 342t-256.5 123q-69 0 -132 -26.5t-117 -80t-86 -146t-32 -212.5t32 -212.5t86 -146t117 -80t132 -26.5zM264 -334h-74v1694h74v-561q47 114 144.5 177.5t226.5 63.5q187 0 305.5 -141.5t118.5 -390.5t-118.5 -391t-305.5 -142 q-129 0 -226.5 64t-144.5 178v-551z" />
<glyph unicode="&#xff;" d="M784 1329h76v-182h-76v182zM369 1147v182h73v-182h-73zM328 -334h-140v66h142q45 0 67.5 4t47.5 22t44 52t46 98l43 102l-422 1014h84l381 -924l370 924h82l-459 -1124q-42 -102 -73 -147.5t-78.5 -66t-134.5 -20.5z" />
<glyph unicode="&#x152;" d="M641 680q0 95 -2 164t-7.5 138.5t-15 117.5t-25.5 90.5t-38.5 67.5t-53.5 39t-71 14q-56 0 -95.5 -27.5t-64 -76t-39 -130t-19.5 -174t-5 -223.5t5 -223.5t19.5 -174t39 -130t64 -76t95.5 -27.5q47 0 81 17.5t57.5 56.5t38.5 87.5t22.5 125.5t10.5 155t3 189zM635 0v131 q-59 -156 -207 -156q-59 0 -105.5 18t-78.5 48t-54.5 81t-36 104t-21 132t-9.5 150.5t-2 171.5q0 77 1.5 135t5 122t10.5 111.5t18.5 96.5t28 83.5t39.5 65.5t52 49.5t67.5 29.5t84.5 11q148 0 207 -155v131h526v-74h-448v-545h401v-71h-401v-596h448v-74h-526z" />
<glyph unicode="&#x153;" d="M1149 293q-26 -158 -90.5 -238t-188.5 -80q-202 0 -268 203q-31 -100 -91.5 -151.5t-162.5 -51.5q-87 0 -146 37.5t-90 111.5t-43 163t-12 213q0 99 7 175t26.5 147.5t51.5 118t84 74t122 27.5q197 0 260 -208q68 204 264 204q305 0 291 -542h-522q-3 -227 52.5 -340 t178.5 -113q95 0 140 62.5t65 197.5zM348 43q116 0 165 107t54 350q0 157 -19.5 258.5t-69 159t-130.5 57.5q-119 0 -168 -118.5t-49 -356.5q0 -236 48.5 -346.5t168.5 -110.5zM1087 561q-1 88 -9.5 154t-31 128.5t-67 96t-109.5 33.5q-212 0 -229 -412h446z" />
<glyph unicode="&#x178;" d="M780 1628h80v-182h-80v182zM369 1628h77v-182h-77v182zM76 1360h88l444 -774l453 774h90l-504 -858v-502h-78v504z" />
<glyph unicode="&#x2c6;" d="M651 1360l260 -221h-73l-224 155l-225 -155h-74l263 221h73z" />
<glyph unicode="&#x2dc;" d="M750 1214q88 0 106 111h68q-14 -85 -58.5 -131.5t-111.5 -46.5q-48 0 -98.5 28.5t-96.5 56.5t-84 28q-44 0 -68.5 -28.5t-35.5 -84.5h-68q12 85 58 131.5t112 46.5q39 0 80.5 -17.5t70 -38t63.5 -38t63 -17.5z" />
<glyph unicode="&#x2013;" d="M1008 479h-787v72h787v-72z" />
<glyph unicode="&#x2014;" d="M1145 479h-1063v72h1063v-72z" />
<glyph unicode="&#x2018;" d="M618 870h-73v199q0 48 1.5 79t5.5 66.5t13.5 57.5t24.5 42.5t38.5 31.5t55.5 14v-74q-42 -12 -54 -52.5t-12 -162.5v-201z" />
<glyph unicode="&#x2019;" d="M610 1360h74v-199q0 -48 -1.5 -79t-5.5 -66.5t-13.5 -57.5t-24.5 -42.5t-38.5 -31.5t-55.5 -14v74q42 12 53.5 52t11.5 163v201z" />
<glyph unicode="&#x201a;" d="M610 199h74v-199q0 -48 -1.5 -79t-5.5 -66.5t-13.5 -57.5t-24.5 -42.5t-38.5 -31.5t-55.5 -14v74q42 12 53.5 52t11.5 163v201z" />
<glyph unicode="&#x201c;" d="M473 870h-74v199q0 58 2 93.5t9.5 75.5t22.5 62.5t41.5 39t64.5 20.5v-74q-42 -12 -54 -52.5t-12 -162.5v-201zM762 870h-74v199q0 48 1.5 79t5.5 66.5t13.5 57.5t24.5 42.5t38.5 31.5t55.5 14v-74q-42 -12 -53.5 -52t-11.5 -163v-201z" />
<glyph unicode="&#x201d;" d="M754 1360h73v-199q0 -48 -1.5 -79t-5.5 -66.5t-13.5 -57.5t-24.5 -42.5t-38.5 -31.5t-55.5 -14v74q42 12 54 52.5t12 162.5v201zM465 1360h74v-199q0 -58 -2 -93.5t-9.5 -75.5t-22.5 -62.5t-41.5 -39t-64.5 -20.5v74q42 12 54 52.5t12 162.5v201z" />
<glyph unicode="&#x201e;" d="M754 199h73v-199q0 -48 -1.5 -79t-5.5 -66.5t-13.5 -57.5t-24.5 -42.5t-38.5 -31.5t-55.5 -14v74q42 12 54 52.5t12 162.5v201zM465 199h74v-199q0 -58 -2 -93.5t-9.5 -75.5t-22.5 -62.5t-41.5 -39t-64.5 -20.5v74q42 12 54 52.5t12 162.5v201z" />
<glyph unicode="&#x2022;" d="M270 530q0 139 99 238.5t237 99.5q148 0 249 -98.5t101 -239.5q0 -148 -100.5 -248t-249.5 -100q-139 0 -237.5 100.5t-98.5 247.5z" />
<glyph unicode="&#x2026;" d="M1081 0h-73v199h73v-199zM651 0h-73v199h73v-199zM221 0h-74v199h74v-199z" />
<glyph unicode="&#x2039;" d="M698 92l-301 428l299 428h86l-293 -426l293 -430h-84z" />
<glyph unicode="&#x203a;" d="M829 520l-301 -428h-82l291 430l-291 426h84z" />
<glyph unicode="&#x20ac;" d="M1122 403q-30 -205 -145 -316.5t-307 -111.5q-105 0 -186.5 38t-136.5 109.5t-88.5 167t-47.5 216.5h-207l57 69h146q-4 66 -4 105q0 45 4 123h-203l57 69h154q29 241 142.5 376.5t316.5 135.5q188 0 300.5 -110.5t141.5 -319.5h-82q-27 177 -120.5 267t-241.5 90 q-156 0 -250.5 -114t-122.5 -325h528l-57 -69h-479q-4 -78 -4 -123q0 -39 4 -105h323l-57 -69h-260q25 -218 120 -337.5t253 -119.5q317 0 370 354h82z" />
<glyph unicode="&#x2122;" d="M215 608v682h-197v70h465v-70h-196v-682h-72zM641 1294v-686h-72v752h119l164 -479l160 479h118v-752h-71v686l-168 -481h-82z" />
<glyph unicode="&#x25fc;" horiz-adv-x="1024" d="M0 1024h1024v-1024h-1024v1024z" />
<glyph unicode="&#xfb01;" d="M938 1360h74v-182h-74v182zM252 1024v113q0 65 9 105t34 68t67.5 39t112.5 11h330v-68h-303q-50 0 -79.5 -4.5t-50.5 -13.5t-30 -30t-12.5 -48t-3.5 -74v-98h686v-1024h-74v958h-612v-958h-74v958h-191v66h191z" />
<glyph unicode="&#xfb02;" d="M252 1024v113q0 65 9 105t34 68t67.5 39t112.5 11h537v-1360h-74v1292h-436q-50 0 -79.5 -4.5t-50.5 -13.5t-30 -30t-12.5 -48t-3.5 -74v-98h428v-66h-428v-958h-74v958h-191v66h191z" />
</font>
</defs>
</svg>
