<?xml version="1.0" encoding="utf-8"?>
<!-- Generator: Adobe Illustrator 19.0.0, SVG Export Plug-In . SVG Version: 6.00 Build 0)  -->
<svg version="1.1" id="Layer_1" xmlns="http://www.w3.org/2000/svg" xmlns:xlink="http://www.w3.org/1999/xlink" x="0px" y="0px"
	 viewBox="0 0 1084 519" style="enable-background:new 0 0 1084 519;" xml:space="preserve">
<g id="XMLID_169_">
	<path id="XMLID_173_" d="M320.8,416.5c-27.4,50.2-80.3,82.9-139.7,82.9c-86.8,0-158.6-70.5-158.6-157.3s71.8-157.3,158.6-157.3
		c59.4,0,112.2,32.6,139.7,82.9l-60,34.6c-17-26.1-43.1-50.2-79.6-50.2c-48.9,0-86.1,41.8-86.1,90.1s37.2,90.1,86.1,90.1
		c36.5,0,62.6-24.1,79.6-50.2L320.8,416.5z"/>
	<path id="XMLID_175_" d="M395.2,192.7H465v32c18.3-23.5,45.7-39.8,83.5-39.8c61.3,0,120.7,45,120.7,129.9v176.8h-72.4V314.7
		c0-35.2-26.1-62.6-64.6-62.6s-64.6,27.4-64.6,62.6v176.8h-72.4V192.7z"/>
	<path id="XMLID_177_" d="M1030.1,434.8c-28.7,39.8-75,64.6-127.9,64.6c-86.8,0-158.6-70.5-158.6-157.3s69.2-157.3,156-157.3
		c86.8,0,156,70.5,156,157.3c0,8.5-1.3,19.6-2.6,25.5H818c9.8,37.8,42.4,65.9,84.2,65.9c32,0,53.5-15,73.7-39.2L1030.1,434.8z
		 M979.2,312.1c-10.4-38.5-41.1-62.6-79.6-62.6s-70.5,23.5-80.9,62.6H979.2z"/>
</g>
</svg>
