<?xml version="1.0" encoding="utf-8"?>
<!-- Generator: Adobe Illustrator 19.0.0, SVG Export Plug-In . SVG Version: 6.00 Build 0)  -->
<svg version="1.1" id="Layer_1" xmlns="http://www.w3.org/2000/svg" xmlns:xlink="http://www.w3.org/1999/xlink" x="0px" y="0px"
	 viewBox="340 38.3 2213 519" style="enable-background:new 340 38.3 2213 519;" xml:space="preserve">
<rect x="1766.2" y="89.7" width="72.8" height="75.4"/>
<path d="M1003.8,469.9c17.8,43,54.9,67.6,101.9,67.6c56.1,0,86-45.2,86-45.2V529h69.5V236.7H1189v161.4c0,12.8-0.7,28.8-5.8,39.8
	c-10.5,22-30.9,34.6-56.1,34.6c-24.7,0-43.9-12.2-54.1-34.5c-5.2-11.4-6-24.6-6-37.3l0-164h-72.2l0,170.7
	C994.6,428.4,995.7,450.5,1003.8,469.9z"/>
<rect x="1766.7" y="237" width="71.7" height="292.3"/>
<path d="M885.5,470.9c-30.1-2.7-41.3-15.8-41.3-47.4v-121h55.1v-65.7h-55.1V132.5l-71.8,0v104.4h-29v65.7h29v133.7
	c0,30.1,8.5,54,25.6,71c26.4,26.6,65.8,29.4,81.5,29.4c8.9,0,20.3-1.6,20.3-1.6v-64.4C899.8,470.6,890.6,471.4,885.5,470.9z"/>
<g>
	<path d="M2303.7,437.2L2303.7,437.2c-2.7,57.8,46,99.3,103,99.3c51.1,0,104-34.6,104-92.5c0-37.4-21-66-61.1-80.9
		c-18.3-6.8-42.6-10-59.1-15.8c-12-4.2-21.4-15.5-20.9-29.5c0.6-20,15.1-32.4,37.9-32.4c41.7,0,41.2,39.5,41.2,39.5l59.6-11.7
		c0,0-7.6-85-100.9-85c-53.4,0-100.2,41.8-100.2,89.5c0,37.5,22.5,69.5,61.8,84.5c23.2,8.8,49.1,9.9,61.8,17.8
		c8.3,5.2,15.2,11.7,15.2,25.2c0,15.9-10.4,33.1-39.7,33.9h-1c-18.9,0-42.5-13.9-40-41.8l0,0L2303.7,437.2L2303.7,437.2z"/>
</g>
<path d="M2079.4,228.3c-85.9,0-155.5,69-155.5,154.1c0,85.2,69.7,154.2,155.5,154.2c85.9,0,155.5-69,155.5-154.2
	C2235,297.3,2165.3,228.3,2079.4,228.3z M2079.4,471.4c-46.8,0-84.7-39.8-84.7-89c0-49.1,37.9-88.9,84.7-88.9
	c46.8,0,84.7,39.8,84.7,88.9C2164.1,431.5,2126.2,471.4,2079.4,471.4z"/>
<path d="M472.3,245.3c-14.6-9.7-23.5-24.1-23.5-45.2c0-35.5,29.7-64.4,66.7-64.4c63.6,0,69.5,67.7,69.5,67.7l75.1-13.1
	c-3.7-38-30.8-124.1-144.6-125.9c-79.6-1.3-144.4,60.8-144.4,135.7c0,49.9,25.6,94.9,70.4,115.7c30.1,14,51.4,17.8,71.2,21.5
	c22.1,4,37.4,7.2,49,17.5c13,11.7,20.8,28.1,20.8,46c0,35.5-30.1,64.4-67,64.4c-17.6,0-65.6-8.1-65.6-73.9l-78-0.1
	c0,123.4,106.3,145.4,143.6,145.4c80,0,145.1-60.9,145.1-135.7c0-47.3-20-86.2-56.5-109.9c-22.6-14.6-47.9-20.7-70.6-25
	C512.4,261.8,491.9,258.3,472.3,245.3z"/>
<path d="M1587.7,40.3v229c-22.5-26.4-61.9-41-95.1-41c-85.9,0-148,70.5-148,154.1c0,82,62.2,154.2,148,154.2c40,0,81-23.7,95.1-43.5
	v36.2h69.7V40.3H1587.7z M1500.1,471.4c-46.8,0-84.7-39.8-84.7-89c0-49.1,37.9-88.9,84.7-88.9c46.8,0,84.7,39.8,84.7,88.9
	C1584.8,431.5,1546.9,471.4,1500.1,471.4z"/>
</svg>
